<svg xmlns="http://www.w3.org/2000/svg" width="18.804" height="18.006" viewBox="0 0 18.804 18.006">
  <g id="bankIcon" transform="translate(0 0)">
    <path id="Path_1113" data-name="Path 1113" d="M330.848,374.417a6.93,6.93,0,0,1-.69.834c-.187.2-.387.384-.6.565a12.288,12.288,0,0,1-1.375,1.024,18.2,18.2,0,0,1-1.828,1.032c-.337.164-.669.321-.993.463-.875.385-1.689.682-2.315.892-.442.148-.791.253-1.006.314A1.21,1.21,0,0,1,322,379.2v-3.913a1.231,1.231,0,0,1,1.231-1.231h6.751A1.224,1.224,0,0,1,330.848,374.417Z" transform="translate(-312.408 -362.428)" fill="#e8f3ff"/>
    <path id="Path_1114" data-name="Path 1114" d="M330.849,374.417a1.224,1.224,0,0,0-.866-.357h-6.751A1.231,1.231,0,0,0,322,375.291V379.2a1.209,1.209,0,0,0,.047.337,1.231,1.231,0,0,0,1.184.893h6.751a1.231,1.231,0,0,0,1.231-1.23v-3.913A1.224,1.224,0,0,0,330.849,374.417Zm-.685,4.787a.182.182,0,0,1-.181.181h-6.751a.182.182,0,0,1-.18-.158.147.147,0,0,1,0-.023v-3.913a.181.181,0,0,1,.181-.181h6.751a.181.181,0,0,1,.175.142.17.17,0,0,1,0,.04Z" transform="translate(-312.409 -362.428)" fill="#2e58ff"/>
    <path id="Path_1115" data-name="Path 1115" d="M360.137,456.69h-.414a.378.378,0,0,0,0,.757h.412a.377.377,0,1,0,0-.755Z" transform="translate(-348.121 -441.445)" fill="#2e58ff"/>
    <path id="Path_1116" data-name="Path 1116" d="M396.839,456.69h-.412a.377.377,0,0,0,0,.755h.412a.377.377,0,0,0,0-.755Z" transform="translate(-383.221 -441.445)" fill="#2e58ff"/>
    <path id="Path_1117" data-name="Path 1117" d="M433.56,456.69h-.412a.377.377,0,0,0,0,.755h.412a.377.377,0,0,0,0-.755Z" transform="translate(-418.335 -441.445)" fill="#2e58ff"/>
    <path id="Path_1118" data-name="Path 1118" d="M461.369,410.64h-1.057a.242.242,0,0,0-.241.241v.715a.242.242,0,0,0,.241.242h1.057a.242.242,0,0,0,.242-.242v-.715A.242.242,0,0,0,461.369,410.64Z" transform="translate(-444.442 -397.408)" fill="#2e58ff"/>
    <path id="Path_1119" data-name="Path 1119" d="M469.89,456.69h-.412a.377.377,0,1,0,0,.755h.412a.377.377,0,0,0,0-.755Z" transform="translate(-453.077 -441.445)" fill="#2e58ff"/>
    <path id="Path_1120" data-name="Path 1120" d="M151.195,264.508v3.853q-.455.1-.875.167-.346.06-.666.1c-.311.044-.6.078-.874.1v-4.255a.481.481,0,0,1,.481-.481h1.421A.511.511,0,0,1,151.195,264.508Z" transform="translate(-146.763 -257.181)" fill="#e8f3ff"/>
    <path id="Path_1121" data-name="Path 1121" d="M242.465,264.508v2.648q-.444.175-.875.328-.338.119-.665.225-.447.144-.875.262v-3.491a.481.481,0,0,1,.481-.481h1.421A.511.511,0,0,1,242.465,264.508Z" transform="translate(-234.042 -257.181)" fill="#e8f3ff"/>
    <path id="Path_1122" data-name="Path 1122" d="M333.746,264.366v.721q-.439.271-.874.515-.336.188-.666.362-.441.232-.875.437v-2.059a.412.412,0,0,1,.412-.412h1.567A.437.437,0,0,1,333.746,264.366Z" transform="translate(-321.331 -257.113)" fill="#e8f3ff"/>
    <path id="Path_1123" data-name="Path 1123" d="M128.9,112.229q-.4.394-.807.76l-.038.035q-.615.555-1.232,1.049H112.54a.47.47,0,0,1-.47-.469v-.72a.47.47,0,0,1,.251-.415l8.337-4.373a.469.469,0,0,1,.437,0Z" transform="translate(-111.658 -108.043)" fill="#e8f3ff"/>
    <path id="Path_1124" data-name="Path 1124" d="M129.436,112.507l-.525-.278-7.805-4.133a.469.469,0,0,0-.437,0l-8.337,4.373a.47.47,0,0,0-.251.415v.72a.47.47,0,0,0,.469.47h16.668a.469.469,0,0,0,.469-.469v-.684a.469.469,0,0,0-.25-.415Zm-15.9.519,7.352-3.857,7.221,3.822.065.035Z" transform="translate(-111.668 -108.043)" fill="#2e58ff"/>
    <path id="Path_1125" data-name="Path 1125" d="M288.006,157.37a1.185,1.185,0,1,0,1.183,1.184,1.185,1.185,0,0,0-1.183-1.184Zm0,1.319a.135.135,0,1,1,.135-.135A.135.135,0,0,1,288.006,158.689Z" transform="translate(-278.767 -155.213)" fill="#2e58ff"/>
    <path id="Path_1126" data-name="Path 1126" d="M150.722,263.94H149.3a.481.481,0,0,0-.481.481v5.517h2.413v-5.488A.511.511,0,0,0,150.722,263.94Zm-.363,5.124h-.666v-4.249h.666Z" transform="translate(-146.801 -257.123)" fill="#2e58ff"/>
    <path id="Path_1127" data-name="Path 1127" d="M241.992,263.94h-1.421a.481.481,0,0,0-.481.481v5.517H242.5v-5.488a.511.511,0,0,0-.512-.511Zm-.364,5.124h-.665v-4.249h.665Z" transform="translate(-234.08 -257.123)" fill="#2e58ff"/>
    <path id="Path_1128" data-name="Path 1128" d="M333.319,263.94h-1.567a.412.412,0,0,0-.412.412v3.776c.093-.157.377-.169.464-.169h1.952v-3.586A.437.437,0,0,0,333.319,263.94Zm-.437,3.145h-.668v-2.27h.666Z" transform="translate(-321.34 -257.123)" fill="#2e58ff"/>
    <path id="Path_1129" data-name="Path 1129" d="M425.095,264.347a.437.437,0,0,0-.437-.437h-1.565a.412.412,0,0,0-.412.412l.006,3.609H425.1Zm-1.535,2.711,0-2.274h.665l0,2.274Z" transform="translate(-408.686 -257.094)" fill="#2e58ff"/>
    <path id="Path_1130" data-name="Path 1130" d="M110.361,420.25v1.106h-5.838V420.25h5.838m1.049-1.049h-7.5a.437.437,0,0,0-.437.437v.778h-.353a.47.47,0,0,0-.47.47v1.1a.416.416,0,0,0,.416.416h8.345Z" transform="translate(-102.65 -405.595)" fill="#2e58ff"/>
  </g>
</svg>
