<svg xmlns="http://www.w3.org/2000/svg" width="19.813" height="13.309" viewBox="0 0 19.813 13.309">
  <g id="cardIcon" transform="translate(0)">
    <path id="Path_1322" data-name="Path 1322" d="M9.9,13.308q-3.722,0-7.446,0A2.382,2.382,0,0,1,.03,11.217a2.549,2.549,0,0,1-.02-.384q0-4.181,0-8.359A2.4,2.4,0,0,1,2.48,0H17.3a2.4,2.4,0,0,1,2.517,2.477c.012,1.057,0,2.114,0,3.171,0,1.721,0,3.443,0,5.164a2.4,2.4,0,0,1-2,2.46,3.171,3.171,0,0,1-.55.034Q13.586,13.309,9.9,13.308Zm8.358-7.192H1.575v4.693c0,.65.287.938.935.938H17.276c.7,0,.98-.279.98-.97ZM18.22,3.691c.015-.029.028-.042.028-.056,0-.384.007-.768.007-1.152a.8.8,0,0,0-.911-.913H2.721c-.133,0-.273,0-.408,0a.736.736,0,0,0-.721.65c-.029.484-.007.971-.007,1.47Z" transform="translate(-0.009)" fill="#ff2c54"/>
    <path id="Path_1323" data-name="Path 1323" d="M172.258,111.371a1.743,1.743,0,0,1-2.527-.05,1.705,1.705,0,0,1,.031-2.278,1.738,1.738,0,0,1,2.5-.013,1.736,1.736,0,0,1,2.494.013,1.7,1.7,0,0,1,.017,2.3A1.744,1.744,0,0,1,172.258,111.371Z" transform="translate(-158.073 -101.31)" fill="#ff2c54"/>
    <path id="Path_1324" data-name="Path 1324" d="M40.5,140.557V139.23h2.483v1.327Z" transform="translate(-37.813 -129.989)" fill="#ff2c54"/>
    <path id="Path_1325" data-name="Path 1325" d="M99.628,140.551H97.15V139.22h2.478Z" transform="translate(-90.703 -129.98)" fill="#ff2c54"/>
  </g>
</svg>
