<svg xmlns="http://www.w3.org/2000/svg" width="26.27" height="26.265" viewBox="0 0 26.27 26.265">
  <g id="qrIcon" transform="translate(0 0)">
    <rect id="Rectangle_243" data-name="Rectangle 243" width="2.626" height="2.626" transform="translate(2.627 2.626)" fill="#d9d9d9"/>
    <path id="Path_1143" data-name="Path 1143" d="M358.254,170.58v1.313H356.94v1.314h1.314v5.253h1.313v1.314h-1.313v1.313h2.631v-2.626h3.939v1.314h1.314V170.58Zm6.57,6.566h-5.257v-5.254h5.257Z" transform="translate(-339.868 -170.58)" fill="#d9d9d9"/>
    <rect id="Rectangle_244" data-name="Rectangle 244" width="2.626" height="2.626" transform="translate(21.012 2.626)" fill="#d9d9d9"/>
    <rect id="Rectangle_245" data-name="Rectangle 245" width="2.626" height="2.626" transform="translate(2.627 21.012)" fill="#d9d9d9"/>
    <rect id="Rectangle_246" data-name="Rectangle 246" width="1.314" height="1.314" transform="translate(18.386 18.386)" fill="#d9d9d9"/>
    <rect id="Rectangle_247" data-name="Rectangle 247" width="1.314" height="1.314" transform="translate(11.819 24.95)" fill="#d9d9d9"/>
    <rect id="Rectangle_248" data-name="Rectangle 248" width="1.314" height="1.314" transform="translate(13.132 19.697)" fill="#d9d9d9"/>
    <rect id="Rectangle_249" data-name="Rectangle 249" width="1.314" height="1.314" transform="translate(13.132 22.325)" fill="#d9d9d9"/>
    <rect id="Rectangle_250" data-name="Rectangle 250" width="1.314" height="1.314" transform="translate(24.951 15.759)" fill="#d9d9d9"/>
    <rect id="Rectangle_251" data-name="Rectangle 251" width="1.314" height="1.314" transform="translate(0 15.759)" fill="#d9d9d9"/>
    <rect id="Rectangle_252" data-name="Rectangle 252" width="1.314" height="1.314" transform="translate(0 9.194)" fill="#d9d9d9"/>
    <path id="Path_1144" data-name="Path 1144" d="M302.226,184.91v1.314H299.6v1.313h3.94V184.91Z" transform="translate(-287.781 -183.596)" fill="#d9d9d9"/>
    <path id="Path_1145" data-name="Path 1145" d="M286.693,285.26v1.314h-2.631v1.313h-3.939v-1.313h-1.314v1.313h-2.626V289.2h3.939v1.314h-3.939V289.2h-1.314v1.314h-1.313V289.2h-1.314v1.314H270.93v1.313h2.626v1.314h1.313v-1.314H277.5v1.314h-1.314v1.313H277.5v2.626h1.313v1.314h1.314v-1.314h3.939v-2.626h1.314V293.14h-1.314v-2.626h-2.626V289.2h2.626v1.314h1.314V289.2h1.317v-1.314h1.314V285.26Zm-3.939,6.566v3.939h-3.939v-3.939Z" transform="translate(-261.737 -274.755)" fill="#d9d9d9"/>
    <path id="Path_1146" data-name="Path 1146" d="M330.9,256.59h-1.313V257.9H328.27v2.626h1.314v-1.314H330.9V257.9h1.314V256.59Z" transform="translate(-313.824 -248.711)" fill="#d9d9d9"/>
    <rect id="Rectangle_253" data-name="Rectangle 253" width="2.626" height="1.314" transform="translate(14.446 24.95)" fill="#d9d9d9"/>
    <rect id="Rectangle_254" data-name="Rectangle 254" width="1.314" height="1.314" transform="translate(10.506 1.313)" fill="#d9d9d9"/>
    <rect id="Rectangle_255" data-name="Rectangle 255" width="1.314" height="1.314" transform="translate(21.012 10.506)" fill="#d9d9d9"/>
    <rect id="Rectangle_256" data-name="Rectangle 256" width="1.314" height="1.314" transform="translate(22.325 9.194)" fill="#d9d9d9"/>
    <rect id="Rectangle_257" data-name="Rectangle 257" width="1.314" height="1.314" transform="translate(5.253 15.759)" fill="#d9d9d9"/>
    <path id="Path_1147" data-name="Path 1147" d="M178.459,364.824v-5.257h1.314V356.94h-1.314v1.314H174.52V356.94h-2.627v1.314H170.58v7.878h10.506v-1.308Zm-1.313,0h-5.254v-5.257h5.254Z" transform="translate(-170.58 -339.868)" fill="#d9d9d9"/>
    <rect id="Rectangle_258" data-name="Rectangle 258" width="1.314" height="1.314" transform="translate(7.879 7.878)" fill="#d9d9d9"/>
    <path id="Path_1148" data-name="Path 1148" d="M179.773,170.58H170.58v7.878h1.313v1.314h1.314v-1.313h1.313v1.314h1.314v-1.314h2.626v-2.626h1.314v-1.314h-1.314v-2.626h2.626V170.58Zm-2.626,6.566h-5.254v-5.254h5.254Z" transform="translate(-170.58 -170.58)" fill="#d9d9d9"/>
    <rect id="Rectangle_259" data-name="Rectangle 259" width="1.314" height="1.314" transform="translate(15.76 3.94)" fill="#d9d9d9"/>
    <rect id="Rectangle_260" data-name="Rectangle 260" width="1.314" height="1.314" transform="translate(13.132 0)" fill="#d9d9d9"/>
    <path id="Path_1149" data-name="Path 1149" d="M186.348,230.546v-1.313h-1.314V227.92h-1.314v1.314h-2.626V227.92h-1.313v2.626h1.313v2.626h-3.939V231.86h-1.314v1.313H171.9v1.314h2.626V235.8H170.59v1.314h3.939v1.314h1.314v-1.314h1.314v1.314h1.313v-1.314H181.1V235.8h-1.314v-1.313h2.626V235.8h2.626v-1.313h-1.314v-1.314h-1.313v-2.626ZM178.47,235.8h-2.628v-1.313h2.626Z" transform="translate(-170.589 -222.667)" fill="#d9d9d9"/>
    <path id="Path_1150" data-name="Path 1150" d="M273.556,373.906V371.28h-1.314v1.313H270.93v1.314h1.313v1.313H270.93v1.314h2.626v-1.314h1.313v-1.313Z" transform="translate(-261.737 -352.894)" fill="#d9d9d9"/>
    <path id="Path_1151" data-name="Path 1151" d="M376.533,415.594V414.28h-1.314v1.314H371.28v1.313h2.626v1.314h1.313v-1.314h2.626v1.314h1.314v-2.626Z" transform="translate(-352.894 -391.955)" fill="#d9d9d9"/>
    <path id="Path_1152" data-name="Path 1152" d="M429.933,371.28v1.313H428.62v1.314h2.626V371.28Z" transform="translate(-404.981 -352.894)" fill="#d9d9d9"/>
  </g>
</svg>
