<svg xmlns="http://www.w3.org/2000/svg" width="274.104" height="195.964" viewBox="0 0 274.104 195.964">
  <g id="successful-img" transform="translate(-0.044 0.021)">
    <g id="Speech_Bubble" data-name="Speech Bubble" transform="translate(0.044 -0.021)">
      <g id="Layer_8" data-name="Layer 8">
        <path id="Path_1207" data-name="Path 1207" d="M483.414,166.99s-3.441-.248-3.1,7.475A94.944,94.944,0,0,0,481.42,186.3s-.1,1.715-1.426,1.379-3.823-2-5.058-.759-.821,3.275.873,5.61,5.223,7.584,5.538,8.059.439,1.343-.517,1.261-7.289-2.237-8.131.837,4.954,8.782,5.574,9.438.656,1.033.4,1.426-2.32-.517-4.133-1.075-4.045-.842-4.381.971,2.211,7.119,11.768,12.7l4.593,2.294,4.35-2.774c8.948-6.5,10.952-12.042,10.435-13.809s-2.686-1.25-4.453-.517-3.73,1.844-4.019,1.488-.3-.765.258-1.462,5.74-6.974,4.6-9.95-7.233-.2-8.168,0-.894-.7-.63-1.2,3.249-6.086,4.706-8.576,1.7-4.51.3-5.683-3.668.79-4.954,1.261-1.55-1.23-1.55-1.23a89.273,89.273,0,0,0-.088-11.882c-.46-7.708-3.968-7.119-3.968-7.119" transform="translate(-227.281 -80.705)" fill="#ebebeb"/>
        <path id="Path_1208" data-name="Path 1208" d="M496.356,180.35a1.219,1.219,0,0,1,0,.16,2.56,2.56,0,0,0,.036.475c.031.424.072,1.033.124,1.824.108,1.581.243,3.875.4,6.716.315,5.683.687,13.5,1.064,22.157s.723,16.49,1.007,22.157c.145,2.831.264,5.12.341,6.716.041.785.072,1.4.093,1.824v.475a2.506,2.506,0,0,0-.036-.47c-.031-.429-.072-1.033-.124-1.824-.1-1.586-.243-3.88-.4-6.716-.315-5.683-.682-13.5-1.059-22.157s-.728-16.485-1.033-22.157c-.145-2.826-.258-5.12-.341-6.716-.036-.785-.067-1.4-.088-1.824v-.475a1.23,1.23,0,0,1,.015-.165Z" transform="translate(-239.948 -87.168)" fill="#e0e0e0"/>
        <path id="Path_1209" data-name="Path 1209" d="M486,210.33a1.375,1.375,0,0,1,.284.238c.176.16.424.4.728.7.61.6,1.421,1.452,2.3,2.413l2.247,2.459.687.739a1.641,1.641,0,0,1,.238.284,3.022,3.022,0,0,1-.289-.232c-.181-.16-.424-.4-.723-.708-.6-.6-1.405-1.467-2.289-2.423l-2.263-2.444-.687-.739A1.638,1.638,0,0,1,486,210.33Z" transform="translate(-234.95 -101.66)" fill="#e0e0e0"/>
        <path id="Path_1210" data-name="Path 1210" d="M499.4,216.018c-.031-.036,1.648-1.793,3.756-3.931s3.844-3.844,3.88-3.807-1.648,1.793-3.756,3.931S499.436,216.049,499.4,216.018Z" transform="translate(-241.427 -100.669)" fill="#e0e0e0"/>
        <path id="Path_1211" data-name="Path 1211" d="M499.37,244.282a1.689,1.689,0,0,1,.32-.207l.9-.517c.754-.429,1.8-1.033,2.934-1.715s2.134-1.354,2.857-1.839l.858-.573a1.766,1.766,0,0,1,.325-.191,1.548,1.548,0,0,1-.284.248c-.2.15-.475.367-.827.62-.708.517-1.7,1.193-2.841,1.886s-2.19,1.276-2.965,1.674c-.387.2-.7.351-.925.455A1.653,1.653,0,0,1,499.37,244.282Z" transform="translate(-241.413 -115.635)" fill="#e0e0e0"/>
        <path id="Path_1212" data-name="Path 1212" d="M484.63,240a2.809,2.809,0,0,1,.32.145l.832.465c.7.4,1.658.956,2.712,1.586s2.01,1.2,2.692,1.627l.806.517a1.39,1.39,0,0,1,.279.207,1.245,1.245,0,0,1-.315-.15c-.2-.1-.486-.263-.837-.46-.7-.4-1.658-.961-2.712-1.586s-2-1.2-2.692-1.627c-.341-.212-.615-.387-.8-.517A1.349,1.349,0,0,1,484.63,240Z" transform="translate(-234.288 -116.003)" fill="#e0e0e0"/>
        <path id="Path_1213" data-name="Path 1213" d="M481.71,262.77a1.976,1.976,0,0,1,.4.2l1.069.589c.9.517,2.134,1.214,3.492,2s2.583,1.514,3.472,2.066l1.033.641a2.338,2.338,0,0,1,.367.253,1.98,1.98,0,0,1-.4-.2l-1.069-.589c-.9-.517-2.134-1.214-3.5-2s-2.583-1.514-3.466-2.066l-1.033-.641A2.066,2.066,0,0,1,481.71,262.77Z" transform="translate(-232.876 -127.009)" fill="#e0e0e0"/>
        <path id="Path_1214" data-name="Path 1214" d="M500.39,267.239a2.494,2.494,0,0,1,.4-.269l1.116-.682c.94-.573,2.242-1.369,3.652-2.289s2.666-1.782,3.575-2.418l1.075-.744a2.582,2.582,0,0,1,.4-.258,2.168,2.168,0,0,1-.367.315c-.243.191-.594.465-1.033.79-.889.656-2.139,1.55-3.554,2.459s-2.723,1.7-3.683,2.252c-.48.274-.873.517-1.147.63a2.792,2.792,0,0,1-.439.212Z" transform="translate(-241.906 -125.951)" fill="#e0e0e0"/>
        <path id="Path_1215" data-name="Path 1215" d="M501.864,288.82H489.15l4.148,31.41h4.417Z" transform="translate(-236.473 -139.602)" fill="#e0e0e0"/>
        <path id="Path_1216" data-name="Path 1216" d="M490.43,295.053a.186.186,0,0,0,.067.114.76.76,0,0,0,.3.217,1.55,1.55,0,0,0,1.343-.16,10.485,10.485,0,0,1,1.648-1.09,3.643,3.643,0,0,1,2.34.047,10.134,10.134,0,0,1,2.175,1.033,15.366,15.366,0,0,0,1.772.951,5.006,5.006,0,0,0,1.307.377,2.063,2.063,0,0,0,.367,0h.129a6.509,6.509,0,0,1-1.741-.517,18.514,18.514,0,0,1-1.736-.982,9.69,9.69,0,0,0-2.211-1.09,3.751,3.751,0,0,0-2.469-.026,3.255,3.255,0,0,0-.93.573,6.776,6.776,0,0,1-.723.563,1.5,1.5,0,0,1-1.24.217,1.2,1.2,0,0,1-.4-.227Z" transform="translate(-237.092 -141.975)" fill="#f5f5f5"/>
        <path id="Path_1217" data-name="Path 1217" d="M491.328,305.324a4.074,4.074,0,0,1,.3-.336,2.846,2.846,0,0,1,1.033-.646,4.582,4.582,0,0,1,1.767-.264,17.926,17.926,0,0,1,2.216.3,7.511,7.511,0,0,0,2.263.093,6.239,6.239,0,0,0,1.782-.517,5.778,5.778,0,0,0,1.074-.641,1.3,1.3,0,0,0,.336-.3,10.185,10.185,0,0,1-1.467.811,6.545,6.545,0,0,1-1.746.455,7.749,7.749,0,0,1-2.211-.114,16.569,16.569,0,0,0-2.237-.284,4.511,4.511,0,0,0-1.829.32,2.7,2.7,0,0,0-1.033.723,1.5,1.5,0,0,0-.191.284C491.338,305.283,491.317,305.319,491.328,305.324Z" transform="translate(-237.524 -146.461)" fill="#f5f5f5"/>
        <path id="Path_1218" data-name="Path 1218" d="M502.2,312.668a1.033,1.033,0,0,0-.346-.186,3.8,3.8,0,0,0-1.033-.222,6.717,6.717,0,0,0-1.6.088c-.594.1-1.23.263-1.9.4a7.793,7.793,0,0,1-1.891.212,4.072,4.072,0,0,1-1.5-.32,3.43,3.43,0,0,1-1.142-.852,1.032,1.032,0,0,0,.217.336,2.67,2.67,0,0,0,.863.646,3.978,3.978,0,0,0,1.55.382,7.358,7.358,0,0,0,1.942-.2c.677-.139,1.307-.31,1.891-.413a7.19,7.19,0,0,1,1.55-.134A5.643,5.643,0,0,1,502.2,312.668Z" transform="translate(-238.232 -150.705)" fill="#f5f5f5"/>
        <path id="Path_1219" data-name="Path 1219" d="M493.5,321.224a2.03,2.03,0,0,1,1.235-.124,5.951,5.951,0,0,1,1.292.48,4.934,4.934,0,0,0,1.674.46,4.99,4.99,0,0,0,3.043-.7,4.132,4.132,0,0,0,.765-.589c.155-.165.233-.258.222-.269a10.618,10.618,0,0,1-1.033.723,5.166,5.166,0,0,1-2.95.625c-1.2-.067-2.128-.785-2.96-.878a1.86,1.86,0,0,0-.961.083C493.582,321.121,493.495,321.214,493.5,321.224Z" transform="translate(-238.575 -154.906)" fill="#f5f5f5"/>
        <path id="Path_1220" data-name="Path 1220" d="M494.87,331.966a2.386,2.386,0,0,0,1.059-.212c.641-.212,1.431-.7,2.356-1.069a3.921,3.921,0,0,1,1.348-.284,2.61,2.61,0,0,1,1.09.248,2.366,2.366,0,0,1,.785.677.5.5,0,0,0-.124-.269,1.715,1.715,0,0,0-.594-.517,2.505,2.505,0,0,0-1.152-.31,3.884,3.884,0,0,0-1.426.279c-.961.382-1.725.889-2.335,1.131S494.865,331.93,494.87,331.966Z" transform="translate(-239.238 -159.619)" fill="#f5f5f5"/>
        <path id="Path_1221" data-name="Path 1221" d="M496.08,338.994a2.94,2.94,0,0,0,.806.258,13.818,13.818,0,0,0,2.01.341,15.327,15.327,0,0,0,2.066.062,3,3,0,0,0,.842-.1c0-.062-1.292,0-2.862-.165S496.1,338.942,496.08,338.994Z" transform="translate(-239.823 -163.852)" fill="#f5f5f5"/>
        <path id="Path_1222" data-name="Path 1222" d="M317.973,1.06V26.632H281.243L279.92,1.241Z" transform="translate(-135.333 -0.501)" fill="#e0e0e0"/>
        <rect id="Rectangle_273" data-name="Rectangle 273" width="25.34" height="36.731" transform="translate(144.587 26.079) rotate(-90)" fill="#fff"/>
        <path id="Path_1223" data-name="Path 1223" d="M316.662,26.761H279.58V1.07h37.082Zm-36.731-.351h36.38V1.416h-36.38Z" transform="translate(-135.169 -0.506)" fill="#e0e0e0"/>
        <rect id="Rectangle_274" data-name="Rectangle 274" width="28.775" height="19.042" transform="translate(148.565 3.886)" fill="#fff"/>
        <path id="Path_1224" data-name="Path 1224" d="M316.236,7.4h-8.059l-20.716.041.083-.083V26.4h0l-.093-.088h28.775l-.072.072c0-5.791.031-10.544.036-13.855v-.067c0,3.317,0,8.085.036,13.9v.072H287.29v-.093h0V7.321h.083l20.768.041h7.976Z" transform="translate(-138.896 -3.518)" fill="#e0e0e0"/>
        <path id="Path_1225" data-name="Path 1225" d="M279.92,1.27a3.048,3.048,0,0,1,.63.408c.377.274.889.656,1.441,1.1s1.033.858,1.379,1.173a2.873,2.873,0,0,1,.517.517c-.031.041-.914-.687-2.02-1.55A19.8,19.8,0,0,1,279.92,1.27Z" transform="translate(-135.333 -0.603)" fill="#e0e0e0"/>
        <path id="Path_1226" data-name="Path 1226" d="M347.259,1.41a17.929,17.929,0,0,1-1.932,1.643,17.933,17.933,0,0,1-2.066,1.5,17.863,17.863,0,0,1,1.932-1.643,17.2,17.2,0,0,1,2.066-1.5Z" transform="translate(-165.951 -0.67)" fill="#e0e0e0"/>
        <path id="Path_1227" data-name="Path 1227" d="M347.133,47.342,343,44" transform="translate(-165.825 -21.258)" fill="#fff"/>
        <path id="Path_1228" data-name="Path 1228" d="M343,44a19.633,19.633,0,0,1,2.1,1.591,17.857,17.857,0,0,1,2.03,1.751,20.486,20.486,0,0,1-2.1-1.591A18.457,18.457,0,0,1,343,44Z" transform="translate(-165.825 -21.258)" fill="#e0e0e0"/>
        <path id="Path_1229" data-name="Path 1229" d="M279.92,47.545a17.155,17.155,0,0,1,1.911-1.627,17.2,17.2,0,0,1,2.025-1.488,16.586,16.586,0,0,1-1.911,1.627A16.719,16.719,0,0,1,279.92,47.545Z" transform="translate(-135.333 -21.466)" fill="#e0e0e0"/>
        <rect id="Rectangle_275" data-name="Rectangle 275" width="6.375" height="18.107" transform="translate(154.408 16.196) rotate(-90)" fill="#e0e0e0"/>
        <rect id="Rectangle_276" data-name="Rectangle 276" width="33.073" height="54.745" transform="translate(198.676 7.864)" fill="#e0e0e0"/>
        <rect id="Rectangle_277" data-name="Rectangle 277" width="33.073" height="54.745" transform="translate(197.576 7.864)" fill="#ebebeb"/>
        <rect id="Rectangle_278" data-name="Rectangle 278" width="30.258" height="52.524" transform="translate(198.986 8.974)" fill="#fafafa"/>
        <rect id="Rectangle_279" data-name="Rectangle 279" width="18.603" height="38.875" transform="translate(204.746 15.799)" fill="#ebebeb"/>
        <path id="Path_1230" data-name="Path 1230" d="M396.37,65.761c-.046-3.616,3.218-7.176,6.819-7.682,1.71-.243,3.534.1,5.135-.558,2.862-1.173,3.771-4.975,6.649-6.1l.134,28.1H396.37Z" transform="translate(-191.624 -24.845)" fill="#e0e0e0"/>
        <path id="Path_1231" data-name="Path 1231" d="M276.623,118.98l24.5,13.566-.92,1.731L275.92,120.452l.7-1.472" transform="translate(-133.4 -57.503)" fill="#e0e0e0"/>
        <path id="Path_1232" data-name="Path 1232" d="M274.95,114.885l1.126-1.725.656.4L275.72,115.3Z" transform="translate(-132.931 -54.689)" fill="#e0e0e0"/>
        <path id="Path_1233" data-name="Path 1233" d="M314.849,141.09l1.255.728L312,168l-1.942.021Z" transform="translate(-149.903 -68.19)" fill="#e0e0e0"/>
        <path id="Path_1234" data-name="Path 1234" d="M299.13,195.829a10.1,10.1,0,0,1,6.99-2.8,8.679,8.679,0,0,1,6.055,2.785Z" transform="translate(-144.619 -93.292)" fill="#e0e0e0"/>
        <path id="Path_1235" data-name="Path 1235" d="M265.922,127.06l-9.7-5.6,2.8-4.851a5.605,5.605,0,0,1,7.651-2.066h0a5.6,5.6,0,0,1,2.066,7.651Z" transform="translate(-123.877 -54.997)" fill="#e0e0e0"/>
        <rect id="Rectangle_280" data-name="Rectangle 280" width="31.09" height="1.514" transform="translate(86.267 101.256) rotate(180)" fill="#ebebeb"/>
        <path id="Path_1236" data-name="Path 1236" d="M154.163,175.523,160,153.67H135.72l-5.28,21.853Z" transform="translate(-63.076 -74.271)" fill="#ebebeb"/>
        <path id="Path_1237" data-name="Path 1237" d="M133.26,174.817h21.682l5.047-19.187h-21.8Z" transform="translate(-64.439 -75.219)" fill="#e0e0e0"/>
        <rect id="Rectangle_281" data-name="Rectangle 281" width="1.57" height="74.96" transform="translate(49.019 105.73)" fill="#f5f5f5"/>
        <rect id="Rectangle_282" data-name="Rectangle 282" width="1.57" height="74.743" transform="translate(50.59 105.942)" fill="#ebebeb"/>
        <rect id="Rectangle_283" data-name="Rectangle 283" width="1.57" height="74.96" transform="translate(145.749 105.73)" fill="#ebebeb"/>
        <rect id="Rectangle_284" data-name="Rectangle 284" width="1.57" height="74.743" transform="translate(147.32 105.942)" fill="#e0e0e0"/>
        <rect id="Rectangle_285" data-name="Rectangle 285" width="119.259" height="6.148" transform="translate(42.247 101.375)" fill="#e0e0e0"/>
        <rect id="Rectangle_286" data-name="Rectangle 286" width="52.503" height="10.177" transform="translate(94.031 107.523)" fill="#ebebeb"/>
        <path id="Path_1238" data-name="Path 1238" d="M235.215,215.5a1.173,1.173,0,1,1-1.173-1.173,1.173,1.173,0,0,1,1.173,1.173Z" transform="translate(-112.59 -103.594)" fill="#e0e0e0"/>
        <path id="Path_1239" data-name="Path 1239" d="M65.29,254.446H85.908a2.63,2.63,0,0,0,2.63-2.63v-6.359a4.427,4.427,0,0,0-4.427-4.427H65.13Z" transform="translate(-31.506 -116.5)" fill="#ebebeb"/>
        <path id="Path_1240" data-name="Path 1240" d="M64.873,270.983H24.324a1.994,1.994,0,0,1-1.994-1.994h0A1.994,1.994,0,0,1,24.324,267H64.873a2,2,0,0,1,2,2h0a1.994,1.994,0,0,1-2,1.984Z" transform="translate(-10.817 -129.054)" fill="#ebebeb"/>
        <path id="Path_1241" data-name="Path 1241" d="M5.29,163.563,27.6,163.17l14.16,53.51-30.2.3L.192,170.072a5.269,5.269,0,0,1,5.1-6.509Z" transform="translate(-0.044 -78.864)" fill="#e0e0e0"/>
        <path id="Path_1242" data-name="Path 1242" d="M25.465,274.71,18.79,313.5h1.829l8.772-38.792Z" transform="translate(-9.105 -132.781)" fill="#ebebeb"/>
        <path id="Path_1243" data-name="Path 1243" d="M55.533,274.71,48.44,313.5h1.829l9.19-38.792Z" transform="translate(-23.438 -132.781)" fill="#e0e0e0"/>
        <path id="Path_1244" data-name="Path 1244" d="M92.176,274.71l7.914,38.792H98.262L88.25,274.71Z" transform="translate(-42.682 -132.781)" fill="#ebebeb"/>
        <path id="Path_1245" data-name="Path 1245" d="M48.44,163.17l11.04,53.567h8.462l-8.85-47.332a7.625,7.625,0,0,0-7.5-6.235Z" transform="translate(-23.438 -78.864)" fill="#ebebeb"/>
        <rect id="Rectangle_287" data-name="Rectangle 287" width="1.142" height="10.193" transform="translate(5.784 35.053)" fill="#e0e0e0"/>
        <rect id="Rectangle_288" data-name="Rectangle 288" width="1.142" height="10.193" transform="translate(43.331 35.053)" fill="#e0e0e0"/>
        <rect id="Rectangle_289" data-name="Rectangle 289" width="47.745" height="4.097" transform="translate(1.574 30.956)" fill="#ebebeb"/>
        <rect id="Rectangle_290" data-name="Rectangle 290" width="6.582" height="30.681" transform="translate(33.309 0.275)" fill="#f5f5f5"/>
        <path id="Path_1246" data-name="Path 1246" d="M71.224,44.432a1.3,1.3,0,1,1-.383-.922A1.307,1.307,0,0,1,71.224,44.432Z" transform="translate(-33.188 -20.838)" fill="#e0e0e0"/>
        <rect id="Rectangle_291" data-name="Rectangle 291" width="2.015" height="12.538" transform="translate(35.67 8.406)" fill="#e0e0e0"/>
        <rect id="Rectangle_292" data-name="Rectangle 292" width="6.582" height="30.681" transform="translate(26.619 0.275)" fill="#ebebeb"/>
        <path id="Path_1247" data-name="Path 1247" d="M58.284,44.432a1.3,1.3,0,1,1-1.3-1.3A1.3,1.3,0,0,1,58.284,44.432Z" transform="translate(-26.938 -20.838)" fill="#fafafa"/>
        <rect id="Rectangle_293" data-name="Rectangle 293" width="2.015" height="12.538" transform="translate(28.98 8.406)" fill="#fafafa"/>
        <rect id="Rectangle_294" data-name="Rectangle 294" width="6.582" height="30.681" transform="translate(20.254 0.275)" fill="#e0e0e0"/>
        <path id="Path_1248" data-name="Path 1248" d="M45.954,44.432a1.3,1.3,0,1,1-.383-.922A1.307,1.307,0,0,1,45.954,44.432Z" transform="translate(-20.973 -20.838)" fill="#fafafa"/>
        <rect id="Rectangle_295" data-name="Rectangle 295" width="2.015" height="12.538" transform="translate(22.615 8.406)" fill="#fafafa"/>
        <path id="Path_1249" data-name="Path 1249" d="M20.749,32.616,28.658,5.629l-2.728-1.2L17.82,31.64Z" transform="translate(-8.636 -2.13)" fill="#e0e0e0"/>
        <path id="Path_1250" data-name="Path 1250" d="M167.984,10.079a1.131,1.131,0,0,0-.971-.718l-9.242-.754L153.152.568A1.147,1.147,0,0,0,151.086.7l-3.57,8.555-9.072,1.906a1.137,1.137,0,0,0-.878.837,1.152,1.152,0,0,0,.362,1.157l7.036,6.039-.992,9.211a1.147,1.147,0,0,0,1.741,1.1l7.92-4.82,8.462,3.792a1.15,1.15,0,0,0,1.586-1.312l-2.144-9.015,6.2-6.876A1.126,1.126,0,0,0,167.984,10.079Z" transform="translate(-66.503 0.021)" fill="#007cff"/>
        <path id="Path_1251" data-name="Path 1251" d="M122.107,352.45a.635.635,0,0,0-.548-.408l-5.238-.429-2.64-4.556a.651.651,0,0,0-1.162.072l-2.025,4.851-5.166,1.08a.646.646,0,0,0-.517.475.656.656,0,0,0,.207.656l3.988,3.425-.491,5.223a.651.651,0,0,0,.987.625l4.489-2.733,4.794,2.149a.718.718,0,0,0,.31.057.687.687,0,0,0,.372-.15.651.651,0,0,0,.217-.651l-1.214-5.114,3.528-3.9A.651.651,0,0,0,122.107,352.45Z" transform="translate(-50.678 -167.596)" fill="#007cff"/>
        <path id="Path_1252" data-name="Path 1252" d="M397.079,53.392a.651.651,0,0,0-.553-.408l-5.244-.429L388.7,48a.635.635,0,0,0-.6-.325.651.651,0,0,0-.563.4l-2.025,4.846L380.366,54a.656.656,0,0,0-.517.475.641.641,0,0,0,.207.656l3.993,3.425-.558,5.223a.651.651,0,0,0,.3.62.635.635,0,0,0,.687,0l4.484-2.728,4.8,2.144a.63.63,0,0,0,.3.057.6.6,0,0,0,.372-.15.641.641,0,0,0,.222-.651l-1.214-5.109,3.518-3.9A.641.641,0,0,0,397.079,53.392Z" transform="translate(-183.628 -23.035)" fill="#007cff"/>
        <circle id="Ellipse_137" data-name="Ellipse 137" cx="78.127" cy="78.127" r="78.127" transform="translate(66.713 33.849)" fill="#007cff"/>
        <path id="Path_1253" data-name="Path 1253" d="M185.92,172.758l27.98,49.75,73.281-82.828-71.545,52.1Z" transform="translate(-89.894 -67.509)" fill="#fff"/>
      </g>
    </g>
  </g>
</svg>
